<?xml version="1.0" encoding="UTF-8" standalone="no"?>
<!DOCTYPE svg PUBLIC "-//W3C//DTD SVG 1.1//EN" "http://www.w3.org/Graphics/SVG/1.1/DTD/svg11.dtd">
<svg width="100%" height="100%" viewBox="0 0 48 48" version="1.1" xmlns="http://www.w3.org/2000/svg" xmlns:xlink="http://www.w3.org/1999/xlink" xml:space="preserve" xmlns:serif="http://www.serif.com/" style="fill-rule:evenodd;clip-rule:evenodd;stroke-linejoin:round;stroke-miterlimit:2;">
    <path d="M14.272,14.223C23.638,4.857 36.05,2.059 41.971,7.98C47.891,13.901 45.094,26.313 35.728,35.679C26.362,45.045 13.95,47.842 8.029,41.921C2.109,36.001 4.906,23.589 14.272,14.223Z" style="fill:#fff;"/>
    <path d="M13.272,13.272C22.638,3.906 35.05,1.109 40.971,7.029C46.891,12.95 44.094,25.362 34.728,34.728C25.362,44.094 12.95,46.891 7.029,40.971C1.109,35.05 3.906,22.638 13.272,13.272Z" style="fill:#452897;"/>
    <path d="M11,43.738L11,18L37,18L37,33.247C36.292,34.092 35.534,34.921 34.728,35.728C27.125,43.331 17.516,45.941 11,43.738Z" style="fill:#fff;"/>
    <rect x="35" y="19" width="1" height="4"/>
    <rect x="33.463" y="19" width="1" height="4"/>
    <rect x="30.963" y="19" width="2" height="4"/>
    <rect x="27.963" y="19" width="2" height="4"/>
    <rect x="24.963" y="19" width="1" height="4"/>
    <rect x="26.463" y="19" width="1" height="4"/>
    <rect x="27.963" y="24" width="1" height="1"/>
    <rect x="25.963" y="24" width="1" height="1"/>
    <rect x="29.963" y="24" width="1" height="1"/>
    <rect x="31.963" y="24" width="1" height="1"/>
    <rect x="33.963" y="24" width="1" height="1"/>
    <g>
        <path d="M15.97,27.729L14.034,34L11.978,34L14.896,26.06L16.199,26.06L15.97,27.729ZM17.573,34L15.632,27.729L15.381,26.06L16.701,26.06L19.635,34L17.573,34ZM17.497,31.039L17.497,32.517L13.423,32.517L13.423,31.039L17.497,31.039Z" style="fill-rule:nonzero;"/>
        <path d="M23.981,31.89C23.981,31.766 23.963,31.654 23.926,31.554C23.89,31.454 23.823,31.361 23.725,31.273C23.626,31.186 23.486,31.098 23.302,31.009C23.118,30.92 22.878,30.826 22.579,30.728C22.23,30.612 21.894,30.48 21.571,30.333C21.247,30.185 20.958,30.013 20.703,29.815C20.449,29.616 20.247,29.384 20.098,29.117C19.949,28.849 19.875,28.538 19.875,28.181C19.875,27.84 19.951,27.531 20.104,27.257C20.256,26.983 20.47,26.748 20.744,26.554C21.019,26.359 21.342,26.21 21.712,26.106C22.083,26.003 22.489,25.951 22.928,25.951C23.51,25.951 24.024,26.052 24.469,26.254C24.914,26.455 25.263,26.741 25.516,27.11C25.769,27.479 25.895,27.914 25.895,28.416L23.992,28.416C23.992,28.216 23.951,28.04 23.869,27.887C23.787,27.734 23.665,27.614 23.501,27.527C23.337,27.44 23.132,27.396 22.885,27.396C22.645,27.396 22.443,27.432 22.279,27.505C22.116,27.578 21.992,27.675 21.909,27.797C21.825,27.919 21.783,28.052 21.783,28.198C21.783,28.318 21.817,28.426 21.884,28.522C21.951,28.618 22.048,28.708 22.173,28.792C22.299,28.876 22.451,28.956 22.631,29.032C22.811,29.108 23.014,29.183 23.239,29.256C23.661,29.39 24.036,29.54 24.365,29.706C24.694,29.871 24.973,30.058 25.2,30.267C25.427,30.476 25.6,30.713 25.718,30.979C25.836,31.244 25.895,31.544 25.895,31.879C25.895,32.235 25.826,32.551 25.688,32.828C25.55,33.104 25.352,33.337 25.093,33.528C24.835,33.719 24.526,33.864 24.166,33.962C23.806,34.06 23.405,34.109 22.961,34.109C22.554,34.109 22.153,34.057 21.759,33.954C21.364,33.85 21.007,33.69 20.687,33.474C20.367,33.257 20.112,32.979 19.921,32.639C19.73,32.299 19.635,31.895 19.635,31.426L21.554,31.426C21.554,31.659 21.585,31.855 21.647,32.015C21.709,32.175 21.8,32.303 21.92,32.399C22.04,32.496 22.187,32.565 22.361,32.607C22.536,32.648 22.736,32.669 22.961,32.669C23.205,32.669 23.401,32.634 23.55,32.563C23.699,32.492 23.808,32.398 23.877,32.279C23.946,32.161 23.981,32.031 23.981,31.89Z" style="fill-rule:nonzero;"/>
        <path d="M33.153,26.06L33.153,34L31.245,34L28.436,29.059L28.436,34L26.522,34L26.522,26.06L28.436,26.06L31.245,31.001L31.245,26.06L33.153,26.06Z" style="fill-rule:nonzero;"/>
    </g>
</svg>
